#tb 0: 1001/30000
0,          0,          0,        1,  1843200, 0xbd414b93
0,          1,          1,        1,  1843200, 0x23298f1f
0,          2,          2,        1,  1843200, 0x5a56df19
